<?xml version="1.0" encoding="UTF-8"?>
<svg id="Layer_1" data-name="Layer 1" xmlns="http://www.w3.org/2000/svg" xmlns:xlink="http://www.w3.org/1999/xlink" viewBox="0 0 168 100">
  <defs>
    <style>
      .cls-1, .cls-2, .cls-3, .cls-4, .cls-5 {
        stroke: #000;
        stroke-width: 1.5px;
      }

      .cls-1, .cls-2, .cls-3, .cls-4, .cls-5, .cls-6 {
        stroke-miterlimit: 10;
      }

      .cls-1, .cls-7, .cls-6 {
        fill: none;
      }

      .cls-2, .cls-8 {
        fill: #fff;
      }

      .cls-9, .cls-7, .cls-8, .cls-10, .cls-11 {
        stroke-width: 0px;
      }

      .cls-3, .cls-11 {
        fill: #61cdf6;
      }

      .cls-4, .cls-10 {
        fill: #f6a9b8;
      }

      .cls-12 {
        clip-path: url(#clippath);
      }

      .cls-6 {
        stroke: #fff;
        stroke-linecap: round;
        stroke-width: 5px;
      }
    </style>
    <clipPath id="clippath">
      <ellipse id="base-3" data-name="base" class="cls-7" cx="37.32" cy="36.59" rx="27.81" ry="24.34"/>
    </clipPath>
  </defs>
  <g id="tubby_or_smth" data-name="tubby or smth">
    <g id="antenna">
      <circle class="cls-4" cx="54.77" cy="7.02" r="2.71"/>
      <line id="mirror" class="cls-1" x1="54.77" y1="9.73" x2="54.77" y2="17.69"/>
    </g>
    <g id="body">
      <polygon class="cls-3" points="54.25 54.13 20.4 54.13 10.37 78.99 64.27 78.99 54.25 54.13"/>
      <polygon class="cls-2" points="49.54 49.47 25.1 49.47 17.86 78.99 56.78 78.99 49.54 49.47"/>
    </g>
    <g id="pelvis">
      <ellipse id="base" class="cls-3" cx="37.32" cy="80.48" rx="22.25" ry="14.67"/>
      <g id="leg-l">
        <ellipse class="cls-4" cx="57.91" cy="83.68" rx="11.47" ry="6.75" transform="translate(-39.93 55.68) rotate(-39.34)"/>
        <ellipse class="cls-4" cx="61.14" cy="81.31" rx="8.41" ry="6.67" transform="translate(-38.39 60.24) rotate(-41.11)"/>
        <ellipse class="cls-2" cx="65.09" cy="82.18" rx="13.67" ry="8.15" transform="translate(-32.49 120.5) rotate(-73.06)"/>
      </g>
      <g id="leg-r">
        <ellipse class="cls-4" cx="16.74" cy="83.68" rx="6.75" ry="11.47" transform="translate(-58.59 43.57) rotate(-50.66)"/>
        <ellipse class="cls-4" cx="13.51" cy="81.31" rx="6.67" ry="8.41" transform="translate(-56.64 38.03) rotate(-48.89)"/>
        <ellipse class="cls-2" cx="9.56" cy="82.18" rx="8.15" ry="13.67" transform="translate(-23.53 6.35) rotate(-16.94)"/>
      </g>
    </g>
    <g id="head">
      <ellipse id="ear-r" class="cls-2" cx="64.58" cy="39.38" rx="7.67" ry="4.58" transform="translate(4.52 85.36) rotate(-68.82)"/>
      <ellipse id="ear-l" class="cls-2" cx="10.07" cy="39.38" rx="4.58" ry="7.67" transform="translate(-13.55 6.3) rotate(-21.18)"/>
      <ellipse id="base-2" data-name="base" class="cls-3" cx="37.32" cy="36.59" rx="27.81" ry="24.34"/>
      <g class="cls-12">
        <polygon class="cls-4" points="42.05 23.26 32.6 23.26 29.8 12.07 44.85 12.07 42.05 23.26"/>
      </g>
      <g id="radio">
        <circle id="m" class="cls-2" cx="37.32" cy="56.2" r="2.07"/>
        <circle id="r" class="cls-2" cx="45.48" cy="55.52" r="2.07"/>
        <circle id="r-2" data-name="r" class="cls-2" cx="29.17" cy="55.52" r="2.07"/>
      </g>
      <path id="visor" class="cls-5" d="m37.32,52.61c-4.59,0-21.23-.32-21.23-12.05,0-17.29,17.53-19.01,21.23-19.01s21.23,1.5,21.23,19.01c0,11.72-16.64,12.05-21.23,12.05Z"/>
      <path id="highlight" class="cls-6" d="m22.24,40.1c1.11-6.09,4.88-10.22,11.07-11.73"/>
      <ellipse id="base-4" data-name="base" class="cls-1" cx="37.32" cy="36.59" rx="27.81" ry="24.34"/>
    </g>
  </g>
  <g id="text">
    <path class="cls-9" d="m167.93,45.73c-.02.84-.05,1.68-.06,2.53-.01,1.3-.06,2.6,0,3.9.05,1.4-.87,2.07-2.01,2.2-.98.11-1.97.05-2.96.05-.11,0-.28-.09-.32-.18-.27-.65-.5-1.3-.75-1.95.77,0,1.5-.02,2.23,0,1.29.03,1.34-.01,1.35-1.28.03-5.81.06-11.61.09-17.42,0-.14,0-.28,0-.52h2.44v12.68Zm-1.95-12.17c0,.21,0,.39,0,.57-.02,5.19-.04,10.39-.06,15.58,0,.69-.01,1.38-.02,2.07,0,.43-.22.73-.63.82-.38.08-.77.1-1.16.12-.51.02-1.03,0-1.6,0,.14.37.26.72.41,1.06.04.09.18.19.27.19.89,0,1.79.01,2.67-.07.99-.09,1.48-.7,1.49-1.71.03-6.04.06-12.08.09-18.12,0-.17,0-.33,0-.51h-1.46Z"/>
    <path class="cls-9" d="m101.27,42.14s-.01.01-.06.05c-.47.44-1.1.8-1.36,1.34-.25.53-.12,1.24-.16,1.87,0,.04-.02.09-.05.17-.45,0-.9,0-1.35,0-1.82,0-3.63,0-5.45-.02-.39,0-.58.09-.64.47-.03.21-.11.42-.18.7h6.23c-.02.46-.02.86-.07,1.26-.15,1.34-.25,2.68-.49,4-.29,1.57-1.11,2.3-2.7,2.35-1.13.03-2.27-.15-3.41-.26-.09,0-.23-.13-.25-.21-.14-.68-.26-1.37-.39-2.09,1.06.16,2.08.34,3.09.47.84.11,1.07-.04,1.25-.87.17-.8.28-1.62.43-2.5-1.42,0-2.73,0-4.05.01-.1,0-.22.14-.27.24-.11.24-.19.49-.29.77-.83-.08-1.63-.15-2.49-.23.39-1.35.77-2.68,1.18-4.1-.43,0-.8,0-1.16,0-1.32.03-2.64.08-3.97.1-.25,0-.37.07-.36.34.01,1.03,0,2.06,0,3.17.97-.31,1.91-.61,2.89-.93,0,.72.01,1.39-.01,2.06,0,.11-.15.27-.26.31-2.77.93-5.54,1.85-8.32,2.76-.12.04-.37-.05-.45-.15-.42-.54-.8-1.12-1.24-1.73.52-.15,1.01-.29,1.53-.45v-8.48h2.44v7.79c.28-.09.52-.15.74-.26.1-.05.2-.2.2-.31.03-2.8.04-5.6.05-8.41,0-.04-.02-.09-.05-.18h-2.85v-7.48h7.24v7.52c1.55-.93,2.78-2.05,3.75-3.58h-3.46v-2.17h4.41c.25-.95.48-1.88.74-2.89.79.17,1.57.34,2.4.51-.19.81-.37,1.57-.55,2.38h6.88v2.14h-4.08c1.36,1.95,3.17,3.15,5.15,4.28v-1.83h9.39v-.73h-6.44v-2.14h6.45v-.65h-8.36v-2.14h8.4v-1.62h2.46v1.63h8.51v2.15h-8.49v.64h6.6v2.12h-6.62v.72h9.43v2.08h-21.54Zm-11.14-1.76h0c.04.43.08.86.12,1.33h6.09c.02-.35.04-.67.06-1.02,1.09.81,2.12,1.59,3.17,2.37.4-.37.74-.69,1.1-1.03-2.05-1.27-3.97-2.61-5.19-4.86h4.39v-1.22h-7.01c.22-.85.43-1.63.64-2.46-.5-.11-.95-.2-1.43-.3-.13.52-.24.98-.36,1.45q-.34,1.33-1.68,1.33h-2.96v1.24h3.78c-1.19,2.27-2.99,3.78-5.2,4.95.39.34.72.64,1.04.92,1.32-.66,2.44-1.5,3.42-2.53.03-.03.03-.1.04-.16Zm21.29-2.7h-6.48v1.19c.2,0,.37,0,.54,0,1.66,0,3.32,0,4.98,0,.98,0,.98,0,.98,1,0,.68,0,.68-.69.68-2.77,0-5.54-.02-8.31-.01-.14,0-.39.12-.41.22-.06.29-.02.6-.02.96h20.3v-1.17h-9.42v-1.66h6.61v-1.18h-6.6v-1.6h8.48v-1.15c-.15,0-.28-.02-.4-.02-2.54,0-5.07-.02-7.61,0-.38,0-.54-.09-.51-.49.03-.38,0-.77,0-1.14h-1.42v1.61h-8.4v1.18h8.39v1.59Zm-29.01,3.06c0,1.25,0,2.43,0,3.6,0,1.86-.01,3.73-.04,5.59,0,.17-.1.43-.22.49-.54.23-1.11.39-1.75.61v-7.98h-1.39c0,.19,0,.34,0,.5-.02,2.33-.04,4.67-.05,7q0,.88-.87,1.12c-.1.03-.2.07-.33.12.22.32.41.63.64.9.08.1.31.17.42.13,2.54-.83,5.08-1.67,7.61-2.52.12-.04.24-.22.26-.35.04-.32.01-.64.01-1.02-.99.32-1.92.62-2.88.93v-4.65c.56,0,1.08,0,1.61,0q.95,0,.86-.96s-.03-.05-.09-.15h-2.37v-3.36h1.87v-6.52h-6.18v6.53h2.88Zm6.87,8.48c.32.03.63.03.92.1.45.12.68-.03.74-.48.05-.38.27-.49.65-.48,1.27.03,2.54.01,3.8.02.26,0,.52.03.81.05-.06,1.24-.17,2.42-.56,3.55-.14.4-.46.66-.87.69-.45.03-.9,0-1.35-.05-.6-.07-1.18-.18-1.83-.28.07.4.11.73.2,1.04.03.11.19.26.31.27.95.09,1.9.21,2.85.19,1.3-.03,1.93-.59,2.23-1.86.14-.58.24-1.16.31-1.75.11-.99.18-1.98.27-3.06h-6.39c.17-.6.34-1.1.45-1.62.08-.41.3-.5.69-.49,2.05.02,4.1.03,6.15.03.18,0,.36-.02.54-.03v-1.17h-11.78v1.18h3.06c-.41,1.4-.79,2.73-1.19,4.13Zm7.58-7.03h-7.14c-.03-.17-.06-.32-.09-.46-.79.55-1.56,1.08-2.36,1.63h11.9c-.79-.57-1.52-1.09-2.28-1.64-.01.18-.03.31-.04.47Zm-12.48-.95v2.35h2.12c-.62-.56-1.17-1.05-1.73-1.55.5-.26.93-.49,1.36-.72-.01-.03-.02-.05-.03-.08h-1.71Z"/>
    <path class="cls-9" d="m140.11,46.68h-5.29c1.86.86,3.14,2.14,4.1,3.85-.67.5-1.35.99-2.05,1.51-1.01-1.7-2.19-3.17-4.22-3.85.69-.51,1.31-.97,2.04-1.52h-2.84v-2.15h8.24v-2.07h-8.05v-2.16h5.49v-2.54h-4.6v-2.18h4.63v-2.76h2.52v2.74h4.78v2.18h-4.74v2.55h5.7v2.18h-3.08v2.04h3.59v2.17h-3.61c0,.21-.02.38-.02.54-.01,1.63-.02,3.26-.04,4.88-.01,1.38-1.02,2.38-2.41,2.38-.85,0-1.69-.01-2.54,0-.27,0-.41-.06-.5-.35-.2-.64-.44-1.26-.69-1.96.43.03.85.05,1.26.07.64.03,1.28.04,1.92.07.24,0,.39-.06.39-.34,0-1.75,0-3.5,0-5.29Zm-2.08-9.41v3.48h-5.47v1.23h12.79v-1.25h-5.69v-3.48h4.72v-1.25h-4.75v-2.74h-1.53v2.74h-4.64v1.26h4.58Zm-5.69,8.94h8.3c0,.23,0,.4,0,.57-.01,1.52-.02,3.04-.03,4.55,0,1.43-.04,1.46-1.49,1.43-.6,0-1.19,0-1.8,0,.1.28.22.57.29.87.07.29.21.4.52.39.73-.02,1.47,0,2.21,0,1.05-.01,1.85-.83,1.86-1.88,0-1.78.02-3.57.03-5.35,0-.18,0-.36,0-.59h3.63v-1.24h-3.6c0-.62.01-1.18-.01-1.74,0-.12-.14-.33-.23-.34-.43-.04-.87-.02-1.35-.02v2.11h-8.31v1.26Zm1.38,1.78c.63.5,1.28.94,1.83,1.48.56.55,1.02,1.2,1.54,1.83.39-.29.79-.59,1.2-.9-.66-1.1-1.48-1.98-2.51-2.67q-.91-.61-1.8.05c-.1.07-.2.15-.27.21Z"/>
    <path class="cls-9" d="m161.2,38.33c-.24,0-.45,0-.67,0-2.07,0-4.13,0-6.2-.02-.35,0-.51.13-.7.4-.75,1.07-1.54,2.12-2.34,3.21.6.28,1.28.61,1.98.91.08.03.28-.09.36-.19.79-1.11,1.57-2.22,2.34-3.34.13-.19.23-.4.38-.65.75.38,1.48.75,2.29,1.16-.59.9-1.14,1.77-1.72,2.61-2.27,3.31-5.42,5.55-8.99,7.26-.1.05-.28.06-.37,0-.19-.13-.35-.31-.53-.47-.4-.37-.79-.74-1.23-1.15,2.07-.95,4.04-1.95,5.83-3.42-1.72-.77-3.37-1.5-5.05-2.25.43-.67.85-1.34,1.29-2.03.17.07.31.13.45.19.65.29.67.3,1.14-.25.52-.61,1.01-1.25,1.61-1.98h-5.06v-2.15h6.55v-2.98h2.43v2.93c.16.02.28.04.4.04,1.79,0,3.57.01,5.36,0,.19,0,.46.11.51-.24,0-.03.13-.06.2-.07.72,0,1.43,0,2.15,0v13.89h-2.42v-11.41Zm-.35-1.71h-6.36v-2.97h-1.44v2.98h-6.53v1.24h5.31c-.76,1.36-1.7,2.47-2.74,3.51-.35-.15-.67-.28-1.02-.43-.27.43-.52.83-.77,1.22,1.75.8,3.43,1.56,5.16,2.35-1.75,1.61-3.75,2.65-5.82,3.66.33.31.63.56.9.85.18.19.32.16.53.06,4.01-1.93,7.25-4.71,9.52-8.57.11-.18.21-.36.33-.57-.49-.25-.92-.46-1.38-.69-.89,1.52-1.81,2.97-3.05,4.2-1.04-.49-2.07-.97-3.1-1.46.05-.09.07-.13.1-.16,1.18-1.09,2.15-2.35,2.96-3.74.08-.13.32-.23.49-.23,1.99,0,3.98,0,5.97.01.31,0,.62,0,.95,0v-1.27Zm.86-.28v12.94h1.42v-12.94h-1.42Z"/>
    <path class="cls-9" d="m153.02,56.56c-2.91,2.97-5.82,5.93-8.75,8.93,2.9,3,5.78,5.98,8.71,9.01-.17.02-.26.05-.36.05-1.41,0-2.82,0-4.23-.03-.21,0-.47-.15-.62-.31-1.78-1.89-3.55-3.79-5.32-5.7-.11-.12-.19-.28-.29-.41-.05.03-.1.06-.15.09v6.29h-4.75v-18.01h4.8v6.63s.1.07.15.11c.11-.15.19-.31.32-.44,1.95-2.01,3.89-4.03,5.86-6.03.16-.16.45-.28.68-.29,1.3-.03,2.6-.01,3.9-.01.02.03.04.07.06.1Zm-15.22.39c0,.21,0,.39,0,.58-.02,5.32-.04,10.64-.06,15.96,0,.09-.03.2,0,.28.05.1.16.25.25.25,1.14.02,2.28.01,3.5.01v-7.09c.06-.03.12-.07.17-.1.1.15.19.32.32.45,2,2.16,4.01,4.31,6.02,6.46.12.13.29.31.43.31,1.1.03,2.21.01,3.44.01-2.81-2.91-5.54-5.73-8.3-8.58,2.79-2.85,5.55-5.66,8.39-8.56-.95,0-1.75.02-2.55,0-.37-.01-.63.1-.9.37-2.17,2.26-4.36,4.5-6.53,6.75-.12.13-.2.3-.31.45-.05-.04-.11-.08-.16-.13v-7.41h-3.73Z"/>
    <path class="cls-9" d="m95,56.37h4.75c0,.23,0,.42,0,.62-.02,4.37-.04,8.73-.06,13.1,0,.88.37,1.47,1.12,1.77.76.31,1.6.14,2.17-.42.39-.38.5-.84.5-1.36.01-4.23.04-8.45.06-12.68,0-.33,0-.65,0-1.02h4.79c0,.21,0,.4,0,.58-.02,4.35-.1,8.7-.05,13.05.03,2.4-1.85,4.16-3.58,4.28-2.14.15-4.33.18-6.46-.07-2.04-.23-3.35-2.09-3.34-4.15.02-4.43.05-8.86.07-13.29,0-.14.02-.27.02-.43Zm.5.48c0,.1-.02.17-.02.25-.02,4.37-.05,8.73-.05,13.1,0,1.96,1.5,3.58,3.46,3.69,1.66.09,3.32.08,4.98.06,2.06-.03,3.95-1.68,3.9-4.11-.07-4.15,0-8.3.02-12.44,0-.18-.02-.36-.04-.55h-3.66c-.01.21-.03.41-.03.61-.02,4.21-.03,8.42-.04,12.63,0,.74-.24,1.35-.81,1.81-.84.67-1.76.78-2.73.33-.91-.42-1.33-1.17-1.32-2.18.03-4.21.04-8.42.06-12.63,0-.18,0-.37,0-.57h-3.71Z"/>
    <path class="cls-9" d="m136.4,74.47h-4.72c0-.19,0-.36,0-.53.01-1.75.03-3.51.04-5.26,0-1.27-.73-2.01-2-2.01-.58,0-1.16,0-1.8,0v7.78h-4.75v-18.01c.17-.01.27-.03.38-.03,2.85,0,5.7,0,8.55.02,1.28,0,2.37.48,3.28,1.39.76.77,1.17,1.7,1.15,2.78-.01.65,0,1.33-.15,1.96-.26,1.09-.88,1.96-1.94,2.57.2.06.34.09.47.14.93.3,1.57,1.05,1.58,2,.02,2.36-.02,4.73-.04,7.09,0,.03-.02.05-.05.11Zm-.48-.48c.01-.09.03-.14.03-.2,0-2.18.02-4.35.01-6.53,0-.64-.36-1.1-.91-1.38-.29-.15-.65-.21-.99-.23-.61-.04-1.22,0-1.83-.03-.1,0-.19-.17-.29-.26.09-.08.17-.21.27-.24.18-.05.37-.03.56-.05,1.24-.11,2.19-.66,2.78-1.79.6-1.15.57-2.38.31-3.57-.33-1.57-1.95-2.77-3.65-2.79-2.71-.03-5.42-.02-8.13-.02-.12,0-.24.02-.41.04v17.02h3.71v-7.77c.97,0,1.86-.05,2.75.01,1.17.07,2.08,1.1,2.08,2.26,0,1.67,0,3.35,0,5.02,0,.16.01.33.02.49h3.68Z"/>
    <path class="cls-9" d="m122.33,74.46h-4.72v-7.79h-3.8v7.76h-4.79c0-.16-.02-.32-.02-.49.02-4.4.1-8.8.05-13.2-.03-2.62,2.26-4.27,4.04-4.31,1.82-.04,3.64-.07,5.45.03,2.13.12,3.88,2.02,3.88,4.11,0,4.56-.04,9.11-.07,13.67,0,.06-.01.12-.02.22Zm-.48-.47c0-.11.02-.21.02-.3.02-4.35.02-8.71.06-13.06.02-2.23-1.97-3.67-3.42-3.72-1.74-.07-3.48-.09-5.21-.05-1.9.04-3.81,1.66-3.77,4.05.07,4.16-.02,8.33-.04,12.49,0,.18,0,.37,0,.58h3.82v-7.77h4.8v7.81c1.12,0,2.22,0,3.31,0,.14,0,.27-.02.44-.03Z"/>
    <path class="cls-9" d="m151.25,70.19h2.57c.02.08.05.14.04.19-.15.91.3,1.44,1.31,1.66.34.07.72.09,1.07.05,1.22-.15,1.82-1.46,1.17-2.51-.13-.21-.3-.4-.48-.58-1.42-1.46-2.8-2.95-4.26-4.37-1.51-1.47-1.71-3.26-1.22-5.12.45-1.69,1.75-2.72,3.45-2.93,1.43-.17,2.92-.14,4.35.05,2.09.28,3.34,2.04,3.2,4.19h-2.54c-.07-.27-.12-.54-.21-.81-.25-.74-.73-1.12-1.49-1.14-.79-.02-1.56.05-1.98.86-.35.67-.22,1.45.34,2.04,1.46,1.53,2.9,3.08,4.42,4.55,1.42,1.37,1.67,3.03,1.36,4.84-.27,1.61-1.77,3.09-3.48,3.26-1.53.15-3.11.14-4.62-.07-2.08-.29-3.22-2.01-2.98-4.17Zm10.66-9.82c-.04-1.7-1.01-3.04-2.62-3.25-1.46-.19-2.98-.23-4.43-.05-1.49.18-2.61,1.17-2.97,2.67-.41,1.71-.19,3.33,1.2,4.67,1.45,1.39,2.81,2.86,4.2,4.3.18.19.37.39.51.61.69,1.06.3,2.61-.79,3.05-.87.35-1.74.31-2.6-.07-.71-.31-1.09-.85-1.09-1.63h-1.57c-.07,1.82,1.01,3.14,2.84,3.32,1.23.13,2.47.14,3.7.08,1.67-.09,3.2-1.32,3.5-2.8.35-1.71.16-3.31-1.21-4.63-1.42-1.37-2.76-2.82-4.13-4.24-.22-.22-.44-.46-.6-.72-.58-.89-.38-2.15.41-2.76,1.41-1.1,3.45-.47,3.97,1.23.02.07.06.14.09.22h1.57Z"/>
    <path class="cls-9" d="m94.12,76.34c-1.34,0-2.65.07-3.94-.02-1.09-.07-1.66-.84-1.89-1.94-1.06,0-2.12.02-3.18,0-1.45-.03-2.62-.64-3.52-1.78-.52-.66-.79-1.42-.79-2.26,0-3.26.04-6.51.03-9.77,0-2.58,2.29-4.19,4.19-4.23,1.66-.04,3.32-.04,4.98,0,2.04.05,4.28,1.76,4.22,4.39-.07,3.05-.08,6.1-.05,9.15.01,1.79-.56,3.18-2.26,4.05h2.21v2.39Zm-.5-.48c0-.34-.02-.64,0-.93.04-.4-.12-.51-.5-.5-1.05.02-2.1,0-3.15,0-.26,0-.46-.06-.37-.36.03-.09.24-.15.38-.17,2.89-.47,3.73-1.82,3.69-4.23-.04-3.01-.05-6.01.03-9.02.05-2.07-1.77-3.75-3.64-3.81-1.69-.06-3.38-.05-5.07,0-1.77.05-3.65,1.65-3.63,3.72.03,3.15-.03,6.29-.05,9.44,0,2.18,1.59,3.85,3.77,3.91,1.08.03,2.16.03,3.24.02.32,0,.45.08.51.43.14.9.62,1.46,1.37,1.5,1.11.06,2.22.02,3.41.02Z"/>
    <path class="cls-9" d="m113.76,51.85c1.01,0,1.95,0,2.89,0,.73,0,.73.01.74-.74,0-.15,0-.31,0-.5h-10.5v3.77h-2.51v-11.61h15.51c0,.22,0,.4,0,.58-.02,2.74-.04,5.48-.05,8.22,0,1.56-.57,2.25-2.14,2.39-.96.09-1.94.04-2.91.03-.11,0-.27-.11-.31-.21-.25-.62-.47-1.25-.71-1.92Zm-8.87-8.61c0,.2,0,.38,0,.56,0,2.93-.02,5.85-.02,8.78,0,.34-.02.69,0,1.03,0,.11.12.28.2.29.41.03.83.01,1.29.01v-3.84c.24,0,.44,0,.64,0,3.24.01,6.48.02,9.72.03q1.24,0,1.2,1.23c-.02.76-.26,1-1.03.99-.78,0-1.56,0-2.39,0,.09.28.19.54.27.8.08.28.22.4.53.39.72-.03,1.44.01,2.16-.02,1.35-.06,1.86-.6,1.86-1.93,0-2.61.01-5.23.02-7.84,0-.15-.01-.3-.02-.49h-14.43Z"/>
    <path class="cls-9" d="m145.45,52.53c2.69-.88,5.19-2.01,7.44-3.64,2.26-1.64,4.1-3.66,5.5-6.15.72.39,1.41.76,2.16,1.17-.64.9-1.22,1.79-1.88,2.62-.65.83-1.38,1.62-2.11,2.46,1.95.92,3.73,2.13,5.25,3.79-.63.58-1.24,1.14-1.89,1.75-.15-.16-.29-.3-.42-.45-1.28-1.41-2.79-2.5-4.49-3.34-.28-.14-.49-.15-.76.05-2.14,1.52-4.49,2.64-6.94,3.57-.12.05-.36.03-.43-.06-.48-.56-.92-1.14-1.43-1.78Zm.79.22c.26.33.49.58.68.86.18.29.37.29.66.17,2.34-.95,4.6-2.05,6.65-3.55.21-.15.37-.21.63-.09,1.5.71,2.88,1.58,4.09,2.71.34.32.64.68.97,1.03.45-.42.82-.76,1.22-1.12-1.58-1.63-3.4-2.78-5.49-3.66,1.67-1.5,3.01-3.19,4.18-5.05-.44-.24-.84-.45-1.25-.68-2.85,4.77-7.16,7.57-12.34,9.37Z"/>
    <path class="cls-9" d="m131.69,51.34h-2.47v-1.72h-2.39v1.72h-2.43v-16.52h7.29v16.52Zm-1.97-.47h1.48v-15.61h-6.28v15.6h1.42v-1.7h3.37v1.72Z"/>
    <g>
      <path class="cls-11" d="m82.4,40.74h-2.88v-6.53h6.18v6.52h-1.87v3.36h2.37c.06.1.09.13.09.15q.09.96-.86.96c-.53,0-1.06,0-1.61,0v4.65c.96-.31,1.9-.61,2.88-.93,0,.37.03.7-.01,1.02-.02.13-.14.31-.26.35-2.53.86-5.07,1.7-7.61,2.52-.12.04-.34-.03-.42-.13-.23-.27-.42-.58-.64-.9.13-.05.23-.1.33-.12q.87-.25.87-1.12c.02-2.33.03-4.67.05-7,0-.15,0-.31,0-.5h1.39v7.98c.64-.21,1.2-.38,1.75-.61.12-.05.22-.32.22-.49.02-1.86.03-3.73.04-5.59,0-1.17,0-2.35,0-3.6Zm-1.59-1.25h3.45v-4.07h-3.45v4.07Z"/>
      <path class="cls-11" d="m90.13,40.38c-.01.05-.01.12-.04.16-.98,1.03-2.1,1.87-3.42,2.53-.32-.29-.65-.58-1.04-.92,2.21-1.16,4.01-2.68,5.2-4.95h-3.78v-1.24h2.96q1.35,0,1.68-1.33c.12-.47.23-.93.36-1.45.48.1.93.2,1.43.3-.22.83-.42,1.61-.64,2.46h7.01v1.22h-4.39c1.22,2.26,3.14,3.59,5.19,4.86-.36.34-.7.65-1.1,1.03-1.05-.79-2.08-1.56-3.17-2.37-.02.35-.04.67-.06,1.02h-6.09c-.04-.47-.08-.9-.12-1.33.18.04.35.12.53.12,1.72.02,3.44.02,5.16.03.16,0,.31-.02.43-.03-.58-.81-1.27-1.51-1.65-2.36-.39-.86-.9-1.1-1.75-.99-.29.04-.46.11-.63.37-.56.88-1.16,1.74-1.75,2.6-.08.11-.23.17-.35.25Z"/>
      <path class="cls-11" d="m89.28,49.22c.4-1.4.79-2.73,1.19-4.13h-3.06v-1.18h11.78v1.17c-.18.01-.36.04-.54.03-2.05,0-4.1,0-6.15-.03-.39,0-.6.08-.69.49-.11.52-.28,1.02-.45,1.62h6.39c-.09,1.08-.16,2.07-.27,3.06-.07.59-.17,1.18-.31,1.75-.3,1.26-.92,1.83-2.23,1.86-.95.02-1.9-.11-2.85-.19-.11-.01-.27-.16-.31-.27-.09-.31-.13-.64-.2-1.04.65.1,1.24.21,1.83.28.45.05.9.08,1.35.05.42-.03.74-.28.87-.69.39-1.13.5-2.31.56-3.55-.3-.02-.56-.05-.81-.05-1.27,0-2.54,0-3.8-.02-.38,0-.6.1-.65.48-.06.45-.29.6-.74.48-.29-.08-.6-.07-.92-.1Z"/>
    </g>
    <path class="cls-10" d="m137.8,56.94h3.73v7.41c.05.04.11.08.16.13.1-.15.18-.32.31-.45,2.18-2.25,4.36-4.49,6.53-6.75.26-.27.52-.38.9-.37.8.03,1.6,0,2.55,0-2.84,2.9-5.6,5.71-8.39,8.56,2.75,2.85,5.49,5.67,8.3,8.58-1.23,0-2.33.01-3.44-.01-.15,0-.31-.18-.43-.31-2.01-2.15-4.02-4.3-6.02-6.46-.12-.13-.21-.3-.32-.45-.06.03-.12.07-.17.1v7.09c-1.22,0-2.36,0-3.5-.01-.09,0-.19-.15-.25-.25-.04-.07,0-.18,0-.28.02-5.32.04-10.64.06-15.96,0-.18,0-.37,0-.58Z"/>
    <path class="cls-10" d="m95.51,56.85h3.71c0,.21,0,.39,0,.57-.02,4.21-.03,8.42-.06,12.63,0,1.02.41,1.76,1.32,2.18.96.45,1.89.34,2.73-.33.58-.46.81-1.08.81-1.81,0-4.21.02-8.42.04-12.63,0-.2.02-.4.03-.61h3.66c.01.19.04.37.04.55-.01,4.15-.09,8.3-.02,12.44.04,2.43-1.85,4.09-3.9,4.11-1.66.02-3.32.03-4.98-.06-1.97-.11-3.46-1.73-3.46-3.69,0-4.37.03-8.73.05-13.1,0-.07.01-.15.02-.25Z"/>
    <path class="cls-8" d="m135.92,73.98h-3.68c0-.16-.02-.33-.02-.49,0-1.67.01-3.35,0-5.02,0-1.16-.91-2.19-2.08-2.26-.89-.06-1.78-.01-2.75-.01v7.77h-3.71v-17.02c.17-.02.29-.04.41-.04,2.71,0,5.42,0,8.13.02,1.69.02,3.31,1.21,3.65,2.79.25,1.2.28,2.42-.31,3.57-.59,1.13-1.54,1.68-2.78,1.79-.19.02-.38,0-.56.05-.1.03-.18.16-.27.24.1.09.19.26.29.26.61.03,1.22-.01,1.83.03.33.02.69.09.99.23.54.28.9.73.91,1.38,0,2.18,0,4.35-.01,6.53,0,.06-.02.12-.03.2Zm-8.47-9.28c.95,0,1.87.06,2.79-.02,1.14-.09,1.99-1.08,2.02-2.22.02-.59.02-1.19.02-1.78-.01-1.12-.66-2.06-1.76-2.22-.99-.14-2.01-.03-3.06-.03v6.26Z"/>
    <path class="cls-8" d="m121.85,73.99c-.16.01-.3.03-.44.03-1.09,0-2.18,0-3.31,0v-7.81h-4.8v7.77h-3.82c0-.21,0-.39,0-.58.02-4.16.12-8.33.04-12.49-.04-2.39,1.87-4,3.77-4.05,1.74-.04,3.48-.02,5.21.05,1.45.06,3.44,1.5,3.42,3.72-.04,4.35-.04,8.7-.06,13.06,0,.09-.01.18-.02.3Zm-3.72-9.32c0-1.39,0-2.75,0-4.1,0-1.23-1.06-2.2-2.37-2.21-1.31,0-2.39.95-2.42,2.18-.02,1.03-.01,2.06-.01,3.09,0,.34,0,.68,0,1.04h4.81Z"/>
    <path class="cls-11" d="m161.91,60.37h-1.57c-.03-.07-.07-.14-.09-.22-.52-1.7-2.56-2.34-3.97-1.23-.79.62-.99,1.87-.41,2.76.17.26.39.49.6.72,1.37,1.42,2.71,2.87,4.13,4.24,1.37,1.32,1.56,2.91,1.21,4.63-.3,1.48-1.84,2.72-3.5,2.8-1.23.06-2.48.04-3.7-.08-1.82-.19-2.9-1.51-2.84-3.32h1.57c0,.77.38,1.31,1.09,1.63.86.38,1.74.42,2.6.07,1.09-.44,1.48-1.99.79-3.05-.14-.22-.33-.42-.51-.61-1.39-1.44-2.75-2.91-4.2-4.3-1.39-1.33-1.6-2.95-1.2-4.67.36-1.5,1.47-2.48,2.97-2.67,1.46-.18,2.98-.14,4.43.05,1.61.21,2.58,1.55,2.62,3.25Z"/>
    <path class="cls-11" d="m93.62,75.86c-1.19,0-2.31.04-3.41-.02-.75-.04-1.23-.6-1.37-1.5-.05-.35-.19-.43-.51-.43-1.08.01-2.16.02-3.24-.02-2.18-.06-3.78-1.73-3.77-3.91.01-3.15.08-6.29.05-9.44-.02-2.08,1.85-3.67,3.63-3.72,1.69-.05,3.38-.05,5.07,0,1.87.06,3.69,1.74,3.64,3.81-.08,3-.07,6.01-.03,9.02.03,2.41-.8,3.76-3.69,4.23-.14.02-.35.09-.38.17-.09.3.11.36.37.36,1.05,0,2.1.02,3.15,0,.39,0,.54.11.5.5-.03.29,0,.59,0,.93Zm-8.5-10.55h-.06c0,1.58-.03,3.16.02,4.74.01.46.14.98.38,1.37.54.89,1.73,1.24,2.78.92,1.05-.32,1.67-1.15,1.68-2.28.01-3.18.02-6.35.03-9.53,0-1.28-1.03-2.24-2.38-2.25-1.38-.01-2.43.95-2.44,2.24,0,1.6,0,3.19,0,4.79Z"/>
    <g>
      <path class="cls-8" d="m111.44,37.68v-1.59h-8.39v-1.18h8.4v-1.61h1.42c0,.37.03.75,0,1.14-.03.4.13.5.51.49,2.54,0,5.07,0,7.61,0,.12,0,.25.01.4.02v1.15h-8.48v1.6h6.6v1.18h-6.61v1.66h9.42v1.17h-20.3c0-.35-.04-.66.02-.96.02-.1.27-.22.41-.22,2.77,0,5.54,0,8.31.01.69,0,.69,0,.69-.68,0-.99,0-.99-.98-1-1.66,0-3.32,0-4.98,0-.17,0-.34,0-.54,0v-1.19h6.48Z"/>
      <path class="cls-8" d="m104.88,43.24h14.43c0,.19.02.34.02.49,0,2.61-.01,5.23-.02,7.84,0,1.33-.52,1.87-1.86,1.93-.72.03-1.44,0-2.16.02-.31.01-.45-.11-.53-.39-.07-.27-.17-.52-.27-.8.83,0,1.61,0,2.39,0,.77,0,1.01-.23,1.03-.99q.03-1.23-1.2-1.23c-3.24,0-6.48-.02-9.72-.03-.2,0-.4,0-.64,0v3.84c-.46,0-.87.01-1.29-.01-.08,0-.19-.18-.2-.29-.02-.34,0-.69,0-1.03,0-2.93.02-5.85.02-8.78,0-.18,0-.37,0-.56Zm1.51,2.8h11.52v-1.6h-11.52v1.6Zm0,2.86c.21,0,.37,0,.54,0,2.43,0,4.86.01,7.28.02,1.1,0,2.19.01,3.29,0,.14,0,.39-.14.4-.23.04-.46.02-.92.02-1.42h-11.54v1.64Z"/>
    </g>
    <g>
      <path class="cls-10" d="m165.98,33.55h1.46c0,.18,0,.34,0,.51-.03,6.04-.06,12.08-.09,18.12,0,1-.49,1.62-1.49,1.71-.89.08-1.78.06-2.67.07-.09,0-.23-.1-.27-.19-.15-.34-.27-.69-.41-1.06.57,0,1.08.01,1.6,0,.39-.01.78-.04,1.16-.12.42-.09.63-.38.63-.82,0-.69.01-1.38.02-2.07.02-5.19.04-10.39.06-15.58,0-.18,0-.37,0-.57Z"/>
      <path class="cls-10" d="m160.85,36.62v1.27c-.33,0-.64,0-.95,0-1.99,0-3.98-.02-5.97-.01-.17,0-.41.1-.49.23-.81,1.39-1.78,2.65-2.96,3.74-.03.03-.05.08-.1.16,1.04.49,2.06.97,3.1,1.46,1.24-1.23,2.16-2.68,3.05-4.2.46.23.89.44,1.38.69-.12.2-.23.39-.33.57-2.27,3.86-5.51,6.64-9.52,8.57-.21.1-.36.13-.53-.06-.27-.28-.57-.54-.9-.85,2.07-1.01,4.08-2.06,5.82-3.66-1.73-.79-3.41-1.56-5.16-2.35.25-.39.5-.79.77-1.22.35.15.67.28,1.02.43,1.04-1.04,1.98-2.15,2.74-3.51h-5.31v-1.24h6.53v-2.98h1.44v2.97h6.36Z"/>
      <path class="cls-10" d="m161.71,36.34h1.42v12.94h-1.42v-12.94Z"/>
      <path class="cls-10" d="m146.24,52.76c5.18-1.8,9.49-4.61,12.34-9.37.41.22.81.44,1.25.68-1.18,1.86-2.51,3.55-4.18,5.05,2.09.87,3.91,2.03,5.49,3.66-.39.36-.77.71-1.22,1.12-.33-.35-.63-.71-.97-1.03-1.21-1.13-2.6-2-4.09-2.71-.26-.12-.42-.06-.63.09-2.05,1.49-4.31,2.59-6.65,3.55-.29.12-.48.12-.66-.17-.18-.29-.42-.54-.68-.86Z"/>
    </g>
    <g>
      <path class="cls-8" d="m138.02,37.27h-4.58v-1.26h4.64v-2.74h1.53v2.74h4.75v1.25h-4.72v3.48h5.69v1.25h-12.79v-1.23h5.47v-3.48Z"/>
      <path class="cls-8" d="m132.34,46.21v-1.26h8.31v-2.11c.49,0,.92-.02,1.35.02.09,0,.23.22.23.34.03.56.01,1.12.01,1.74h3.6v1.24h-3.63c0,.23,0,.41,0,.59,0,1.78-.02,3.57-.03,5.35,0,1.06-.8,1.87-1.86,1.88-.74,0-1.47-.01-2.21,0-.31.01-.45-.1-.52-.39-.08-.3-.2-.59-.29-.87.61,0,1.2,0,1.8,0,1.45.02,1.48,0,1.49-1.43,0-1.52.02-3.04.03-4.55,0-.17,0-.34,0-.57h-8.3Z"/>
      <path class="cls-8" d="m133.72,47.99c.07-.05.17-.13.27-.21q.89-.66,1.8-.05c1.03.69,1.85,1.58,2.51,2.67-.41.31-.81.6-1.2.9-.52-.62-.98-1.28-1.54-1.83-.55-.54-1.2-.98-1.83-1.48Z"/>
      <path class="cls-8" d="m129.72,50.87v-1.72h-3.37v1.7h-1.42v-15.6h6.28v15.61h-1.48Zm.01-2.91v-5.28h-3.36v5.28h3.36Zm-3.33-11.44v4.85h3.35v-4.85h-3.35Z"/>
    </g>
    <path class="cls-9" d="m80.82,39.49v-4.07h3.45v4.07h-3.45Zm2.95-.46v-3.13h-2.44v3.13h2.44Z"/>
    <path class="cls-9" d="m90.13,40.38c.12-.08.27-.14.35-.25.59-.86,1.19-1.72,1.75-2.6.16-.26.33-.33.63-.37.85-.11,1.36.13,1.75.99.38.85,1.07,1.55,1.65,2.36-.12,0-.28.03-.43.03-1.72,0-3.44-.01-5.16-.03-.18,0-.36-.08-.53-.12,0,0,0,0,0,0Zm5.01-.36c-.44-.74-.87-1.45-1.29-2.16-.15-.25-1-.34-1.16-.09-.47.73-.91,1.47-1.39,2.25h3.84Z"/>
    <path class="cls-9" d="m127.44,64.71v-6.26c1.04,0,2.07-.11,3.06.03,1.1.16,1.75,1.1,1.76,2.22,0,.59,0,1.19-.02,1.78-.03,1.13-.88,2.12-2.02,2.22-.91.07-1.84.02-2.79.02Zm.53-.48c.74,0,1.48.05,2.21-.01.88-.08,1.55-.88,1.56-1.77,0-.61,0-1.22,0-1.83,0-.84-.61-1.62-1.44-1.71-.75-.08-1.52-.02-2.33-.02v5.34Z"/>
    <path class="cls-9" d="m118.13,64.66h-4.81c0-.36,0-.7,0-1.04,0-1.03-.01-2.06.01-3.09.03-1.23,1.11-2.19,2.42-2.18,1.31,0,2.36.98,2.37,2.21.01,1.36,0,2.71,0,4.1Zm-.49-.46c0-1.22,0-2.39,0-3.56,0-1.02-.8-1.81-1.85-1.84-1.06-.03-1.92.75-1.95,1.79-.03,1.03-.02,2.06-.03,3.1,0,.17,0,.33,0,.52h3.83Z"/>
    <path class="cls-9" d="m85.11,65.31c0-1.6,0-3.19,0-4.79,0-1.29,1.06-2.25,2.44-2.24,1.35,0,2.38.98,2.38,2.25,0,3.18-.01,6.35-.03,9.53,0,1.13-.63,1.96-1.68,2.28-1.05.32-2.24-.03-2.78-.92-.24-.39-.37-.9-.38-1.37-.05-1.58-.02-3.16-.02-4.74h.06Zm4.26.11h.06c0-1.56,0-3.13,0-4.69,0-1.18-.76-1.97-1.9-1.98-1.14,0-1.92.78-1.92,1.95-.01,3.13-.02,6.26-.03,9.38,0,1.12.76,1.88,1.88,1.89,1.11,0,1.9-.76,1.91-1.86,0-1.56,0-3.13,0-4.69Z"/>
    <path class="cls-9" d="m106.39,46.04v-1.6h11.52v1.6h-11.52Zm.54-.48h10.46v-.65h-10.46v.65Z"/>
    <path class="cls-9" d="m106.39,48.9v-1.64h11.54c0,.5.02.96-.02,1.42,0,.09-.26.22-.4.23-1.1.02-2.19,0-3.29,0-2.43,0-4.86-.01-7.28-.02-.17,0-.34,0-.54,0Zm.51-.49h10.45v-.68h-10.45v.68Z"/>
    <path class="cls-9" d="m129.73,47.96h-3.36v-5.28h3.36v5.28Zm-.52-.46v-4.37h-2.33v4.37h2.33Z"/>
    <path class="cls-9" d="m126.4,36.52h3.35v4.85h-3.35v-4.85Zm.5.46v3.93h2.36v-3.93h-2.36Z"/>
  </g>
</svg>