<?xml version="1.0" encoding="UTF-8"?>
<svg id="assets" xmlns="http://www.w3.org/2000/svg" viewBox="0 0 1000 1000">
  <defs>
    <style>
      .cls-1 {
        fill: #eff1f3;
      }

      .cls-1, .cls-2 {
        stroke-width: 0px;
      }

      .cls-2 {
        fill: #687787;
      }
    </style>
  </defs>
  <g id="img-plhdr">
    <rect id="base" class="cls-1" width="1000" height="1000"/>
    <g>
      <circle class="cls-2" cx="441.19" cy="455.32" r="29.27"/>
      <path class="cls-2" d="m630.73,368.15h-261.47c-8.1,0-14.66,6.57-14.66,14.66v234.38c0,3,.9,5.78,2.45,8.1h0s0,0,0,0c.08.12.17.23.25.35.15.22.31.43.48.64.1.12.19.24.29.36.23.27.47.54.72.79.1.11.21.21.32.31.21.2.42.39.64.58.09.08.18.16.27.23.29.24.59.46.9.67.11.08.22.15.34.23.32.21.65.42.99.6.06.04.13.07.2.1.31.16.63.32.95.46.1.04.2.09.3.13.37.15.75.29,1.14.42.08.03.17.05.26.08.36.11.72.2,1.08.28.07.02.14.03.22.05.41.08.84.15,1.26.19.1.01.19.02.29.03.44.04.89.07,1.34.07h261.47c8.1,0,14.66-6.57,14.66-14.66h0v-234.38c0-8.1-6.57-14.66-14.66-14.66Zm-101.65,85.11l-145.3,145.3v-201.23h232.44v143.07l-87.14-87.14Z"/>
    </g>
  </g>
</svg>