<?xml version="1.0" encoding="UTF-8"?>
<svg id="assets" xmlns="http://www.w3.org/2000/svg" viewBox="0 0 200 200">
  <defs>
    <style>
      .cls-1 {
        fill: #633d34;
        stroke-width: 0px;
      }
    </style>
  </defs>
  <g>
    <path class="cls-1" d="m131.37,152.74c-2.42,0-4.83-.55-7.07-1.65h0s-.28-.14-.28-.14c-3.87-1.89-6.77-5.18-8.18-9.25-1.4-4.07-1.13-8.45.76-12.32l15.16-31.03c1.89-3.87,5.18-6.77,9.25-8.18,4.07-1.4,8.45-1.13,12.32.76l.28.14c7.99,3.9,11.32,13.58,7.41,21.57l-15.16,31.03c-1.89,3.87-5.18,6.77-9.25,8.18-1.72.59-3.49.88-5.26.88Zm-4.87-6.14c2.67,1.31,5.69,1.49,8.5.53,2.81-.97,5.08-2.97,6.38-5.64l15.16-31.03c2.69-5.51.4-12.19-5.12-14.89l-.28-.14c-2.67-1.31-5.69-1.49-8.5-.53-2.81.97-5.08,2.97-6.38,5.64l-15.16,31.03c-1.31,2.67-1.49,5.69-.53,8.5.97,2.81,2.97,5.08,5.64,6.38l.28.14Z"/>
    <rect class="cls-1" x="136.32" y="107.23" width="5" height="27.58" transform="translate(-30.84 192.63) rotate(-63.97)"/>
  </g>
  <g>
    <path class="cls-1" d="m70.89,132.75c-1.81,0-3.62-.36-5.33-1.09-3.36-1.42-5.96-4.07-7.33-7.46l-19.54-48.31c-2.83-6.98.56-14.96,7.54-17.79l.24-.1c6.98-2.83,14.97.56,17.79,7.54l19.54,48.31c2.83,6.98-.56,14.96-7.54,17.79l-.24.1c-1.66.67-3.39,1-5.12,1Zm-19.32-70.74c-1.08,0-2.18.2-3.24.63l-.24.1c-4.43,1.79-6.57,6.85-4.78,11.28l19.54,48.31c.87,2.15,2.52,3.82,4.65,4.73,2.13.9,4.49.92,6.63.05l.24-.1c4.43-1.79,6.57-6.85,4.78-11.28l-19.54-48.31c-1.36-3.37-4.61-5.41-8.04-5.41Z"/>
    <rect class="cls-1" x="77.64" y="128.42" width="5" height="26.37" transform="translate(-47.25 40.39) rotate(-22.02)"/>
    <path class="cls-1" d="m74.62,160.56c-.99,0-1.92-.59-2.32-1.56-.52-1.28.1-2.74,1.38-3.26l20.94-8.47c1.28-.52,2.74.1,3.26,1.38.52,1.28-.1,2.74-1.38,3.26l-20.94,8.47c-.31.12-.62.18-.94.18Z"/>
    <path class="cls-1" d="m46.83,61.74c-.99,0-1.92-.59-2.32-1.56l-7-17.3c-.52-1.28.1-2.74,1.38-3.26,1.28-.52,2.74.1,3.26,1.38l7,17.3c.52,1.28-.1,2.74-1.38,3.26-.31.12-.62.18-.94.18Z"/>
  </g>
  <g>
    <path class="cls-1" d="m106,102.22c-3.29,0-6.52-.89-9.41-2.63-4.18-2.52-7.13-6.52-8.3-11.26-2.42-9.78,3.57-19.71,13.35-22.13,4.74-1.17,9.65-.43,13.83,2.09,4.18,2.52,7.13,6.52,8.3,11.26,2.42,9.78-3.57,19.71-13.35,22.13-1.47.36-2.95.54-4.42.54Zm.06-31.56c-1.07,0-2.15.13-3.21.39-7.1,1.76-11.45,8.97-9.7,16.07.85,3.44,2.99,6.35,6.03,8.18,3.04,1.83,6.6,2.37,10.04,1.52,7.1-1.76,11.45-8.97,9.7-16.07-.85-3.44-2.99-6.35-6.03-8.18-2.1-1.26-4.45-1.91-6.83-1.91Z"/>
    <path class="cls-1" d="m96.43,88.82c-1.12,0-2.14-.76-2.42-1.9-.33-1.34.49-2.7,1.83-3.03l19.21-4.75c1.34-.33,2.7.49,3.03,1.83.33,1.34-.49,2.7-1.83,3.03l-19.21,4.75c-.2.05-.4.07-.6.07Z"/>
  </g>
</svg>